<svg xml:space="preserve" style="enable-background:new 0 0 2000 2000;" viewBox="0 0 2000 2000" y="0px" x="0px" xmlns:xlink="http://www.w3.org/1999/xlink" xmlns="http://www.w3.org/2000/svg" id="图层_1" version="1.1">
<style type="text/css">
	.st0{fill:#8FC741;}
	.st1{fill:#008080;}
	.st2{fill:#004752;}
	.st3{fill:#FFC001;}
	.st4{display:none;}
	.st5{display:inline;}
	.st6{fill:#FFDF99;}
	.st7{fill:#8CC442;}
	.st8{fill:#D85252;}
	.st9{display:inline;fill:#008080;}
	.st10{clip-path:url(#SVGID_2_);fill:#FFC001;}
	.st11{display:inline;fill:#8CC442;}
	.st12{display:inline;fill:#D85252;}
	.st13{display:inline;fill:#004752;}
	.st14{display:inline;fill:#FFC001;}
	.st15{display:inline;fill:#FFDF99;}
	.st16{display:inline;fill:#FFFFFF;}
	.st17{clip-path:url(#SVGID_4_);fill:#004752;}
	.st18{fill:#93CB41;}
	.st19{fill:#FFFFFF;}
	.st20{display:inline;opacity:0.98;fill:#D85252;}
	.st21{display:inline;opacity:0.96;fill:#8CC442;}
	.st22{clip-path:url(#SVGID_6_);}
	.st23{clip-path:url(#SVGID_8_);fill:#FFC001;}
	.st24{clip-path:url(#SVGID_10_);fill:#FFC001;}
	.st25{clip-path:url(#SVGID_12_);fill:#FFC001;}
	.st26{clip-path:url(#SVGID_14_);fill:#FFC001;}
	.st27{fill:#94CC41;}
	.st28{clip-path:url(#SVGID_16_);}
	.st29{clip-path:url(#SVGID_18_);}
	.st30{display:inline;fill:#8FC741;}
</style>
<g id="露营">
	<g>
		<polygon points="663.2,474.4 217.3,1416.9 870.6,1565.6" class="st0"></polygon>
		<polygon points="1108,465.2 663.2,474.4 870.6,1565.6 1602.4,1391" class="st1"></polygon>
		<polygon points="630.2,747.2 366.7,1450.9 642.5,1513.7" class="st2"></polygon>
		<polygon points="847.2,673.1 1086.2,646.3 1161.9,822.4 896.3,869" class="st2"></polygon>
		<path d="M885.9,1584.6h-30.6c-1.1,0-2-0.9-2-2V1504c0-1.1,0.9-2,2-2h30.6c1.1,0,2,0.9,2,2v78.5
			C887.9,1583.7,887,1584.6,885.9,1584.6z" class="st2"></path>
		<path d="M1613.5,1426.4H1583c-1.1,0-2-0.9-2-2v-78.5c0-1.1,0.9-2,2-2h30.6c1.1,0,2,0.9,2,2v78.5
			C1615.5,1425.5,1614.6,1426.4,1613.5,1426.4z" class="st2"></path>
		<path d="M232.6,1441.1H202c-1.1,0-2-0.9-2-2v-78.5c0-1.1,0.9-2,2-2h30.6c1.1,0,2,0.9,2,2v78.5
			C234.6,1440.2,233.7,1441.1,232.6,1441.1z" class="st2"></path>
	</g>
	<g>
		<path d="M1429.2,1258.8h-290.1c-2.1,0-3.8,1.7-3.8,3.8v16.8c0,2.1,1.7,3.8,3.8,3.8h290.1c2.1,0,3.8-1.7,3.8-3.8v-16.8
			C1433.1,1260.5,1431.4,1258.8,1429.2,1258.8z" class="st2"></path>
		<path d="M1337.5,1576.9l-110.7-304.1c-0.7-2-2.9-3-4.9-2.3l-10.4,3.8c-2,0.7-3,2.9-2.3,4.9l110.7,304.1
			c0.7,2,2.9,3,4.9,2.3l10.4-3.8C1337.2,1581,1338.2,1578.8,1337.5,1576.9z" class="st2"></path>
		<path d="M1209.2,1576.9l110.7-304.1c0.7-2,2.9-3,4.9-2.3l10.4,3.8c2,0.7,3,2.9,2.3,4.9l-110.7,304.1
			c-0.7,2-2.9,3-4.9,2.3l-10.4-3.8C1209.5,1581,1208.4,1578.8,1209.2,1576.9z" class="st2"></path>
		<path d="M1657.1,1443.1h-465.1c-6,0-10.8-4.8-10.8-10.8v-31.2c0-6,4.8-10.8,10.8-10.8h465.1c6,0,10.8,4.8,10.8,10.8
			v31.2C1667.9,1438.3,1663.1,1443.1,1657.1,1443.1z" class="st3"></path>
		<polygon points="1800,1014 1420,1014 1268.6,1393 1648.6,1393" class="st3"></polygon>
		<path d="M1765.1,1258.8h-269.1c-2.1,0-3.8,1.7-3.8,3.8v16.8c0,2.1,1.7,3.8,3.8,3.8h269.1c2.1,0,3.8-1.7,3.8-3.8v-16.8
			C1768.9,1260.5,1767.2,1258.8,1765.1,1258.8z" class="st2"></path>
		<path d="M1694.2,1576.9l-110.7-304.1c-0.7-2-2.9-3-4.9-2.3l-10.4,3.8c-2,0.7-3,2.9-2.3,4.9l110.7,304.1
			c0.7,2,2.9,3,4.9,2.3l10.4-3.8C1693.9,1581,1694.9,1578.8,1694.2,1576.9z" class="st2"></path>
		<path d="M1565.9,1576.9l110.7-304.1c0.7-2,2.9-3,4.9-2.3l10.4,3.8c2,0.7,3,2.9,2.3,4.9l-110.7,304.1
			c-0.7,2-2.9,3-4.9,2.3l-10.4-3.8C1566.2,1581,1565.2,1578.8,1565.9,1576.9z" class="st2"></path>
	</g>
	<path d="M1648.7,414.2c14.3,19.5,22.7,43.5,22.7,69.5c0,65-52.7,117.7-117.7,117.7c-13.4,0-26.3-2.2-38.3-6.4
		c21.1,37.2,61.1,62.3,107,62.3c67.9,0,123-55.1,123-123C1745.5,475.5,1704,426.2,1648.7,414.2z" class="st3"></path>
</g>
<g class="st4" id="浪漫">
	<g class="st5">
		<path d="M646.4,1283.3l-96.1,18.9c-2.1,0.4-4.2-1-4.7-3.1l-13.8-70.2c-0.4-2.1,1-4.2,3.1-4.7l96.1-18.9
			c2.1-0.4,4.2,1,4.7,3.1l13.8,70.2C650,1280.7,648.6,1282.8,646.4,1283.3z" class="st2"></path>
		<circle r="150.6" cy="1649.4" cx="638.5" class="st2"></circle>
		<circle r="53.8" cy="1649.4" cx="638.5" class="st6"></circle>
		<circle r="150.6" cy="1649.4" cx="1478.2" class="st2"></circle>
		<circle r="53.8" cy="1649.4" cx="1478.2" class="st6"></circle>
		<path d="M1275.1,1526H897.5c-33.6,0-61.1,27.5-61.1,61.1v0c0,33.6,27.5,61.1,61.1,61.1h377.6
			c33.6,0,61.1-27.5,61.1-61.1v0C1336.2,1553.5,1308.7,1526,1275.1,1526z" class="st1"></path>
		<path d="M993.8,1265H771c-11.8,0-21.5-9.7-21.5-21.5v-10.2c0-11.8,9.7-21.5,21.5-21.5h222.8
			c11.8,0,21.5,9.7,21.5,21.5v10.2C1015.3,1255.4,1005.6,1265,993.8,1265z" class="st2"></path>
		<path d="M475.4,1008h194.2c36.7,0,66.8,30.1,66.8,66.8v112c0,36.7-30.1,66.8-66.8,66.8H475.4
			c-36.7,0-66.8-30.1-66.8-66.8v-112C408.6,1038.1,438.7,1008,475.4,1008z" class="st1"></path>
		<path d="M460.5,1375.2h-31.2c-26.5,0-48.2-21.7-48.2-48.2v0c0-26.5,21.7-48.2,48.2-48.2h31.2
			c26.5,0,48.2,21.7,48.2,48.2v0C508.6,1353.5,487,1375.2,460.5,1375.2z" class="st2"></path>
		<path d="M429.7,1375.2h-0.6c-26.4,0-48-21.6-48-48v-0.4c0-26.4,21.6-48,48-48h0.6V1375.2z" class="st3"></path>
		<path d="M960.7,1423.8L960.7,1423.8c0-48.2,33.3-88.6,78.2-99.4c12.4-3,18.1-17.3,11.7-28.2
			c-11-18.6-31.2-31.1-54.2-31.1h-305c-176.1,0-320.2,144.1-320.2,320.2v0c0,34.6,28.3,62.9,62.9,62.9h562.3
			c34.6,0,62.9-28.3,62.9-62.9V1526C1004.5,1524,960.7,1479,960.7,1423.8z" class="st1"></path>
		<path d="M648.2,1119.4c0-24.7-19.7-44.8-44.1-44.8c-12.4,0-23.6,6.6-31.6,15c-8-8.4-19.2-15-31.6-15
			c-24.4,0-44.1,20.1-44.1,44.8c0,36.6,57.7,84.7,75.7,84.7C590.8,1204.1,648.2,1153.4,648.2,1119.4z" class="st6"></path>
		<path d="M685,1527.7H509.5c-0.4,0-0.8-0.4-0.8-0.8v-16.1c0-0.4,0.4-0.8,0.8-0.8h175.4c0.5,0,1,0.4,1,1v15.9
			C685.8,1527.3,685.5,1527.7,685,1527.7z" class="st2"></path>
		<path d="M685,1601H509.5c-0.4,0-0.8-0.4-0.8-0.8v-16.1c0-0.4,0.4-0.8,0.8-0.8h175.4c0.5,0,1,0.4,1,1v15.9
			C685.8,1600.6,685.5,1601,685,1601z" class="st2"></path>
		<path d="M720.5,1564.4H474c-0.4,0-0.8-0.4-0.8-0.8v-16.1c0-0.4,0.4-0.8,0.8-0.8h246.3c0.5,0,1,0.4,1,1v15.9
			C721.3,1564,720.9,1564.4,720.5,1564.4z" class="st2"></path>
		<path d="M1287.3,1057.7h114l103.8,383.1h-217.8c0,0,16.5-51.2,16.5-193.1S1287.3,1057.7,1287.3,1057.7z" class="st1"></path>
		<path d="M1285.9,965.4h141c34.6,0,62.7,28.1,62.7,62.7v9.7c0,34.6-28.1,62.7-62.7,62.7h-141
			c-34.6,0-62.7-28.1-62.7-62.7v-9.7C1223.2,993.5,1251.2,965.4,1285.9,965.4z" class="st1"></path>
		<path d="M1478.1,983.7h0.6c26.4,0,48,21.6,48,48v0.4c0,26.4-21.6,48-48,48h-0.6V983.7z" class="st3"></path>
		<path d="M1456.7,1105.9h-8.7c-11.8,0-21.4-9.6-21.4-21.4V979.3c0-11.8,9.6-21.4,21.4-21.4h8.7
			c11.8,0,21.4,9.6,21.4,21.4v105.2C1478.1,1096.3,1468.5,1105.9,1456.7,1105.9z" class="st2"></path>
		<path d="M1312.4,1064.3h-118.1c-13.1,0-23.8-10.6-23.8-23.8v0c0-13.1,10.6-23.8,23.8-23.8h118.1
			c13.1,0,23.8,10.6,23.8,23.8v0C1336.2,1053.7,1325.5,1064.3,1312.4,1064.3z" class="st2"></path>
		<path d="M1252.7,1016.8H1240c13.1,0,23.8,10.6,23.8,23.8v0c0,13.1-10.6,23.8-23.8,23.8h12.7
			c13.1,0,23.8-10.6,23.8-23.8v0C1276.5,1027.4,1265.8,1016.8,1252.7,1016.8z" class="st7"></path>
		<circle r="23.8" cy="1040.5" cx="1194.3" class="st7"></circle>
		<path d="M1200.3,766.9h-8.1c-0.3,0-0.7,0-1,0v122c0.3,0,0.7,0,1,0h8.1c19.8,0,35.9-27.5,35.9-61v0
			C1236.2,794.4,1220,766.9,1200.3,766.9z" class="st6"></path>
		<rect height="121.9" width="11.2" class="st3" y="767" x="1191.1"></rect>
		<path d="M1241.2,847h-14.5c-0.4,0-0.8-0.4-0.8-0.8v-36.5c0-0.4,0.4-0.8,0.8-0.8h14.5c0.4,0,0.8,0.4,0.8,0.8l0,36.5
			C1242,846.6,1241.7,847,1241.2,847z" class="st6"></path>
		<path d="M1277.8,831.5h-50.1c-0.2,0-0.4-0.2-0.4-0.4v-6.4c0-0.2,0.2-0.4,0.4-0.4h50.1c0.2,0,0.4,0.2,0.4,0.4v6.4
			C1278.1,831.3,1278,831.5,1277.8,831.5z" class="st6"></path>
		<path d="M1320.4,995.1L1270.2,826c-0.1-0.2,0.1-0.4,0.2-0.5l6.3-1.9c0.2-0.1,0.4,0.1,0.5,0.2l50.2,169.2
			c0.1,0.2-0.1,0.4-0.2,0.5l-6.3,1.9C1320.7,995.4,1320.5,995.3,1320.4,995.1z" class="st6"></path>
		<circle r="9.8" cy="991.9" cx="1322.5" class="st6"></circle>
		<path d="M1495.1,1495.3c24.5,0,47.9,5.2,68.9,14.7c14.2,1.9,24.7-15.3,16.8-29.1c-35.2-61.2-105.8-94.5-177.4-93.1
			c-107.3,2.1-192.1,96.1-192.1,212.7c0,16.6,1.8,32.8,5.1,48.3H1327C1334.7,1562.8,1407,1495.3,1495.1,1495.3z" class="st1"></path>
	</g>
	<g class="st5">
		<path d="M916,1095c2.4-0.4,5-3.5,6.9-8.6c4.9-13.1,14.4-41.3,20.7-79c8.4-50.7-11.2-45.4-1.3-105.1
			c6.6-39.8,26.3-45.2,36.7-107.6c8.2-49.2,1.7-80.1-1.5-91c-0.8-2.8-2.3-4.2-3.9-3.8l0,0c-2.8,0.7-5.1,8.7-4,14
			c3.1,14.8,6.3,42.8-0.4,83.1c-9.2,55.5-26.3,45.3-36.7,107.6c-10.3,61.8,10.3,54.4,1.5,107.1c-5.2,31.4-13.5,55.3-19.3,69.6
			C912.3,1087.3,913.1,1095.5,916,1095L916,1095z" class="st2"></path>
		<path d="M756.9,687.8c-2,1.9-3.1,6.2-2.8,11.8c0.6,14.5,2.7,45.2,11.2,82.1c11.5,49.7,26.7,32.7,40.2,91.2
			c9,39.1-6.3,56.1,7.8,117.3c11.1,48.2,28.3,71.2,35.1,78.7c1.8,2,3.5,2.3,4.8,0.9v0c2.2-2.4,1.2-10.8-1.7-14.8
			c-8.2-11-21.4-33.5-30.5-73.1c-12.5-54.4,6.2-56.2-7.8-117.3c-13.9-60.6-29.2-41.1-41.1-92.8c-7.1-30.8-8.8-56.9-9-73
			C763,692.2,759.3,685.6,756.9,687.8L756.9,687.8z" class="st2"></path>
		<path d="M898.9,1074.6c-2.2-0.9-4.5-5-6-11.3c-4.1-16.2-11.8-51.2-16.2-96.6c-6-61.2,11.9-51.4,4.9-123.4
			c-4.7-48-22.6-57.8-29.9-133.1c-5.8-59.3,1.3-94.5,4.6-106.7c0.9-3.2,2.2-4.5,3.7-3.8l0,0c2.5,1.3,4.4,11.2,3.1,17.2
			c-3.4,16.8-7.3,49.2-2.6,97.8c6.5,66.9,22.6,58,29.9,133.1c7.3,74.5-11.4,62.1-5.2,125.6c3.7,37.8,10.4,67.5,15.3,85.3
			C902.6,1066.2,901.5,1075.7,898.9,1074.6L898.9,1074.6z" class="st2"></path>
		<g>
			<g>
				<path d="M998.6,718.6l-39.5-6.5c-3-0.5-5.2-3.1-4.7-5.9l17-24.2c0.2-1.4,1.7-2.3,3.2-2l19.7,3.3
					c1.5,0.3,2.6,1.6,2.4,2.9l8.3,28.3C1004.5,717.3,1001.6,719.1,998.6,718.6z" class="st6"></path>
				<path d="M1152.3,531.9c-12.7,77-76,169.1-168.6,153.8c-81.1-13.4-123-122.8-110.3-199.8
					c12.7-77,85.4-129.1,162.4-116.4C1112.8,382.2,1165,454.9,1152.3,531.9z" class="st6"></path>
			</g>
		</g>
		<g>
			<path d="M879.4,608.4l-46.7,0.9c-3.6,0.1-6.6-2.5-6.6-5.7l14.3-31.3c0-1.6,1.4-3,3.2-3l23.3-0.5
				c1.8,0,3.3,1.3,3.3,2.9l15.5,30.7C885.9,605.6,883,608.3,879.4,608.4z" class="st8"></path>
			<path d="M1016.1,361.6c1.8,91-51.3,210-160.7,212.2c-95.8,1.9-167.1-114.7-168.9-205.7c-1.8-91,70.5-166.2,161.6-168
				C939.1,198.2,1014.3,270.6,1016.1,361.6z" class="st8"></path>
		</g>
		<g>
			<g>
				<path d="M771,692.3l-34.1,8.1c-2.6,0.6-5.2-0.8-5.8-3.1l5.5-25.2c-0.3-1.2,0.6-2.4,1.9-2.7l17-4
					c1.3-0.3,2.6,0.4,2.9,1.6l16.3,20.1C775.4,689.2,773.7,691.7,771,692.3z" class="st6"></path>
				<path d="M832,489.7c15.8,66.4-4.3,162.1-84.1,181c-69.9,16.6-140.7-57.5-156.4-124c-15.8-66.4,25.3-133,91.7-148.8
					S816.3,423.3,832,489.7z" class="st6"></path>
			</g>
		</g>
		<g>
			<path d="M942.1,1070.8h-91c-13.8,0-25,11.3-25,25v91c0,13.8,11.3,25,25,25h91c13.8,0,25-11.3,25-25v-91
				C967.1,1082.1,955.9,1070.8,942.1,1070.8z" class="st3"></path>
			<path d="M976,1119.3H817.2c-7.1,0-13-5.8-13-13v-22.5c0-7.1,5.8-13,13-13H976c7.1,0,13,5.8,13,13v22.5
				C989,1113.5,983.2,1119.3,976,1119.3z" class="st6"></path>
			<path d="M969.4,1065.6C969.4,1065.6,969.4,1065.6,969.4,1065.6l-11.1-19.2c-3.2-5.5-10.2-7.3-15.7-4.2l-46.1,26.6
				l-46.1-26.6c-5.5-3.2-12.5-1.3-15.7,4.2l-11,19.1c0,0,0,0,0,0.1c-1.3,2.3,0.4,5.2,3.1,5.2h66.2h6.9h66.2
				C969,1070.8,970.7,1067.9,969.4,1065.6z" class="st8"></path>
			<path d="M908.1,1119.3h-22.9c-0.7,0-1.3-0.6-1.3-1.3v-45.9c0-0.7,0.6-1.3,1.3-1.3h22.9c0.7,0,1.3,0.6,1.3,1.3v45.9
				C909.3,1118.7,908.8,1119.3,908.1,1119.3z" class="st8"></path>
		</g>
	</g>
</g>
<g class="st4" id="户外">
	<polygon points="567.9,1670.3 738.9,1423.4 908.3,1333.9 1124.2,978.5 1220.7,1103.4 1360.6,695.8 1735.9,1670.3" class="st9"></polygon>
	<g class="st5">
		<path d="M778,1670.3H226c-14.4,0-26-11.6-26-26v-537.8c0-5.5,4.5-10,10-10h584c5.5,0,10,4.5,10,10v537.8
			C804,1658.7,792.4,1670.3,778,1670.3z" class="st2"></path>
		<path d="M755.8,1633.8H248.2c-9.9,0-18-8.1-18-18v-368.6c0-3.3,2.7-6,6-6h531.6c3.3,0,6,2.7,6,6v368.6
			C773.8,1625.7,765.7,1633.8,755.8,1633.8z" class="st1"></path>
		<path d="M361.1,1210.8H238.2c-4.4,0-8-3.6-8-8v-62.5c0-4.4,3.6-8,8-8h122.9c4.4,0,8,3.6,8,8v62.5
			C369.1,1207.2,365.5,1210.8,361.1,1210.8z" class="st7"></path>
		<g>
			<defs>
				<path d="M755.8,1633.8H248.2c-9.9,0-18-8.1-18-18v-368.6c0-3.3,2.7-6,6-6h531.6c3.3,0,6,2.7,6,6v368.6
					C773.8,1625.7,765.7,1633.8,755.8,1633.8z" id="SVGID_1_"></path>
			</defs>
			<clipPath id="SVGID_2_">
				<use style="overflow:visible;" xlink:href="#SVGID_1_"></use>
			</clipPath>
			<path d="M800.2,1402.4l-2.9-2.9l1.5-1.1l-149.6-194.9l7.1-7.1l-14.9-14.9l-5.1,5.1l-18.6-24.2l-16.8,12.9l20.3,26.4
				l-183.9,183.9l-143.1-167.7l-16.1,13.7l144.1,169l-205.2,205.2l14.9,14.9l79.8-79.8l94.2,116.8l16.5-13.3l-95.6-118.5
				l109.2-109.2l208.3,244.2l16.1-13.7l-48.4-56.7L800.2,1402.4z M634.2,1218.6l138.9,181l-174.7,174.7l-147.3-172.7L634.2,1218.6z" class="st10"></path>
		</g>
	</g>
	<polygon points="1099.9,1670.3 1351.7,1334 1443.1,1430.1 1635.3,1146.4 1800,1670.3" class="st11"></polygon>
	<g class="st5">
		
			<rect height="209.8" width="14.5" class="st2" transform="matrix(0.9627 -0.2705 0.2705 0.9627 -281.1644 281.8762)" y="1055.9" x="874.6"></rect>
		
			<rect height="209.8" width="14.5" class="st2" transform="matrix(-0.9627 -0.2705 0.2705 -0.9627 1866.9298 2579.0039)" y="1055.9" x="1103.9"></rect>
		<rect height="209.8" width="14.5" class="st2" y="1055.9" x="992.7"></rect>
		<path d="M1340.4,652c0,204.8-200.5,494.6-340.4,494.6c-142.9,0-340.4-289.8-340.4-494.6S812,329.7,1000,329.7
			S1340.4,447.2,1340.4,652z" class="st2"></path>
		<path d="M1193.9,652c0,204.8-114.3,494.6-193.9,494.6c-81.4,0-193.9-289.8-193.9-494.6s86.8-322.4,193.9-322.4
			S1193.9,447.2,1193.9,652z" class="st1"></path>
		<path d="M1087,1437.5H913c-5.5,0-10-4.5-10-10v-174.2H1097v174.2C1097,1433,1092.5,1437.5,1087,1437.5z" class="st3"></path>
		<path d="M1111.2,1313.9H888.8c-5.5,0-10-4.5-10-10v-40.6c0-5.5,4.5-10,10-10h222.4c5.5,0,10,4.5,10,10v40.6
			C1121.2,1309.4,1116.7,1313.9,1111.2,1313.9z" class="st6"></path>
	</g>
	<path d="M654.9,578c-2.1-27.5-25.1-49.3-53.2-49.3c-28.1,0-51.1,21.7-53.2,49.3c-22.1,4-39,23.4-39,46.6v0
		c0,26.1,21.3,47.4,47.4,47.4h89.5c26.1,0,47.4-21.3,47.4-47.4v0C693.8,601.5,676.9,582,654.9,578z" class="st11"></path>
	<path d="M631.6,1215.6c-35.2,0-63.7,28.5-63.7,63.7c0,36,49.6,97.7,49.6,97.7c7.7,12.4,20.4,12.4,28.2,0
		c0,0,49.6-64.9,49.6-97.7C695.2,1244.1,666.7,1215.6,631.6,1215.6z M631.6,1308.8c-16.5,0-29.9-13.4-29.9-29.9s13.4-29.9,29.9-29.9
		c16.5,0,29.9,13.4,29.9,29.9S648.1,1308.8,631.6,1308.8z" class="st12"></path>
</g>
<g class="st4" id="办公">
	<path d="M1790,918.4H210c-5.5,0-10-4.5-10-10v-21.1c0-5.5,4.5-10,10-10h1580c5.5,0,10,4.5,10,10v21.1
		C1800,913.9,1795.5,918.4,1790,918.4z" class="st13"></path>
	<path d="M1710.7,1114.3H887.9V970.9c0-5.5,4.5-10,10-10h802.8c5.5,0,10,4.5,10,10V1114.3z" class="st14"></path>
	<rect height="617.1" width="550.7" class="st9" y="918.4" x="296.9"></rect>
	<path d="M1742.7,1617.8h-21.1c-5.5,0-10-4.5-10-10V918.4h41.1v689.4C1752.7,1613.3,1748.3,1617.8,1742.7,1617.8z" class="st13"></path>
	<path d="M286.9,1617.8h-21.1c-5.5,0-10-4.5-10-10V918.4h41.1v689.4C296.9,1613.3,292.4,1617.8,286.9,1617.8z" class="st13"></path>
	<rect height="41.1" width="555.4" class="st13" y="1206.4" x="294.5"></rect>
	<rect height="41.1" width="555.4" class="st13" y="1535.5" x="294.5"></rect>
	<path d="M878.7,1617.8h-21.1c-5.5,0-10-4.5-10-10V918.4h41.1v689.4C888.7,1613.3,884.2,1617.8,878.7,1617.8z" class="st13"></path>
	<circle r="27.6" cy="1310.2" cx="567.1" class="st14"></circle>
	<circle r="27.6" cy="989.3" cx="567.1" class="st14"></circle>
	<rect height="339.6" width="588.5" class="st13" y="382.2" x="1009.8"></rect>
	
		<rect height="522.7" width="273.7" class="st9" transform="matrix(-1.836970e-16 1 -1 -1.836970e-16 1856.0437 -752.0408)" y="290.7" x="1167.2"></rect>
	<rect height="81.4" width="41.1" class="st13" y="718.1" x="1297.8"></rect>
	<rect height="82" width="619.2" class="st11" y="795.3" x="993"></rect>
	<rect height="361.1" width="70" class="st14" y="516.1" x="366.2"></rect>
	<rect height="153.1" width="27.9" class="st15" y="551.3" x="387.3"></rect>
	<rect height="322.5" width="70" class="st14" y="554.7" x="436.3"></rect>
	<rect height="136.7" width="27.9" class="st15" y="586.2" x="457.4"></rect>
	<rect height="263.7" width="51.9" class="st12" y="613.6" x="506.3"></rect>
	<rect height="17.1" width="29.4" class="st16" y="835.5" x="518"></rect>
	<rect height="263.7" width="51.9" class="st12" y="613.6" x="558.2"></rect>
	<rect height="17.1" width="29.4" class="st16" y="835.5" x="569.9"></rect>
	<path d="M1667.3,869.5h-99.2v4.8c0,1.6,1.3,2.9,2.9,2.9h93.3c1.6,0,2.9-1.3,2.9-2.9V869.5z" class="st13"></path>
	<path d="M1678.5,869.5H1557c-2,0-3.5-1.6-3.5-3.5v-5.8H1682v5.8C1682,868,1680.4,869.5,1678.5,869.5z" class="st13"></path>
	<path d="M1642.3,860.2h-55.8c-5,0-9.1-4.1-9.6-9.6l-6.1-72.4c-0.3-3.1,2-5.7,4.8-5.7h77.6c2.8,0,5.1,2.7,4.8,5.7
		l-6.1,72.4C1651.4,856.1,1647.2,860.2,1642.3,860.2z" class="st14"></path>
	<path d="M1676,792.8c-10-7.7-26.2-3.3-36.1,9.7c-10,13-9.9,29.8,0.1,37.4c10,7.7,26.2,3.3,36.1-9.7
		C1686,817.2,1686,800.5,1676,792.8z M1645.8,832.3c-5.6-4.3-4.7-15.4,1.7-23.9c6.5-8.5,17-12.2,22.6-7.9c5.6,4.3,4.7,15.4-1.7,23.9
		C1661.9,832.9,1651.3,836.5,1645.8,832.3z" class="st14"></path>
	<path d="M1588.7,844l-4.7-55.6c-0.2-1.9,1.3-3.5,3.2-3.5h54.3c1.9,0,3.3,1.6,3.2,3.5L1640,844c-0.2,2.2-2,3.9-4.2,3.9
		h-42.9C1590.7,847.9,1588.9,846.2,1588.7,844z" class="st15"></path>
	<g class="st5">
		<path d="M654.6,853.1l-102.2-153c-1.2-1.8-3.7-2.3-5.5-1.1l-7,4.7c-1.8,1.2-2.3,3.7-1.1,5.5l102.2,153
			c1.2,1.8,3.7,2.3,5.5,1.1l7-4.7C655.3,857.5,655.8,855,654.6,853.1z" class="st3"></path>
		<path d="M755.6,849.8h-162c-4.4,0-8,3.6-8,8v17c0,4.4,3.6,8,8,8h162c4.4,0,8-3.6,8-8v-17
			C763.6,853.5,760,849.8,755.6,849.8z" class="st2"></path>
		<path d="M896,498.2C839.2,555,785.7,608.5,753.4,640.8c-39.4-39.4-39.4-103.2,0-142.6
			C792.8,458.8,856.6,458.8,896,498.2z" class="st3"></path>
		<path d="M796.7,597.5c22.3-22.3,43.4-43.4,56.1-56.1c15.5,15.5,15.5,40.6,0,56.1C837.2,613,812.1,613,796.7,597.5z" class="st6"></path>
		<path d="M784.8,509.8l-19.8,19.8c-5.1,5.1-13.5,5.1-18.7,0l-29.2-29.2c-5.1-5.1-5.1-13.5,0-18.7l19.8-19.8
			c5.1-5.1,13.5-5.1,18.7,0l29.2,29.2C789.9,496.3,789.9,504.7,784.8,509.8z" class="st3"></path>
		<path d="M725.7,499.9L527.9,697.7c-1.6,1.6-1.6,4.1,0,5.7l6,6c1.6,1.6,4.1,1.6,5.7,0l197.8-197.8
			c1.6-1.6,1.6-4.1,0-5.7l-6-6C729.8,498.3,727.3,498.3,725.7,499.9z" class="st3"></path>
		<circle r="20" cy="704" cx="545.1" class="st6"></circle>
		<path d="M717.9,828.3h-12.3c-3.2,0-5.8,2.6-5.8,5.8v15.7h24v-15.7C723.7,830.9,721.1,828.3,717.9,828.3z" class="st8"></path>
	</g>
	<path d="M893.9,799.6h66.3c7.1,0,12.9,5.4,12.9,12.1l-7.7,55.5c0,5.5-4.8,10.1-10.7,10.1h-55.3
		c-5.9,0-10.7-4.5-10.7-10.1l-7.7-55.5C881,805,886.8,799.6,893.9,799.6z" class="st9"></path>
	<rect height="18.2" width="4.1" class="st13" y="781.4" x="926.4"></rect>
	<g class="st5">
		<defs>
			<path d="M893.9,799.6h66.3c7.1,0,12.9,5.4,12.9,12.1l-7.7,55.5c0,5.5-4.8,10.1-10.7,10.1h-55.3
				c-5.9,0-10.7-4.5-10.7-10.1l-7.7-55.5C881,805,886.8,799.6,893.9,799.6z" id="SVGID_3_"></path>
		</defs>
		<clipPath id="SVGID_4_">
			<use style="overflow:visible;" xlink:href="#SVGID_3_"></use>
		</clipPath>
		<path d="M975.7,866.1h-97.4c-2.2,0-4-1.8-4-4v-8.4c0-2.2,1.8-4,4-4h97.4c2.2,0,4,1.8,4,4v8.4
			C979.7,864.4,977.9,866.1,975.7,866.1z" class="st17"></path>
	</g>
	<path d="M884.2,728.6c-6,0-11.6,1.2-16.8,3.2c-1.9,4.8-3,9.9-3,15.4c0,22.8,18.5,41.3,41.3,41.3
		c8.6,0,16.6-2.6,23.2-7.1c0.4-2.4,0.6-4.9,0.6-7.5C929.5,748.9,909.2,728.6,884.2,728.6z" class="st11"></path>
	<path d="M988.7,765.8c2.3-4.9,3.5-9.9,3.8-15c-3.1-3.4-7-6.2-11.4-8.3c-18.6-8.8-40.8-0.8-49.6,17.8
		c-3.3,7-4.2,14.5-3.1,21.6c1.8,1.3,3.8,2.4,5.9,3.4C954.8,794.9,979.1,786.2,988.7,765.8z" class="st11"></path>
</g>
<g class="st4" id="唱歌">
	<g class="st5">
		<path d="M1089.9,1257.5c161.1-161.1,127.3-273.5,8.3-392.5C992.8,759.5,877,744.4,740.1,881.4
			c-161.3,161.3-265.8,27.3-421.5,183.1c-146.6,146.6-88,357.5,78.2,523.7c166.2,166.2,377.1,224.8,523.7,78.2
			C1069.5,1517.2,941.7,1405.7,1089.9,1257.5z" class="st1"></path>
		<path d="M657.1,1529.9l-202.2-202.2c-2.3-2.3-2.3-6.2,0-8.5l35.2-35.2c2.3-2.3,6.2-2.3,8.5,0l202.2,202.2
			c2.3,2.3,2.3,6.2,0,8.5l-35.2,35.2C663.2,1532.3,659.4,1532.3,657.1,1529.9z" class="st3"></path>
		
			<ellipse ry="138.3" rx="134" cy="1143.4" cx="842.5" class="st18" transform="matrix(0.7071 -0.7071 0.7071 0.7071 -561.7488 930.6384)"></ellipse>
		
			<ellipse ry="106.4" rx="103.1" cy="1143.4" cx="842.5" class="st2" transform="matrix(0.7071 -0.7071 0.7071 0.7071 -561.7488 930.6384)"></ellipse>
		
			<rect height="1113.2" width="140.4" class="st2" transform="matrix(0.7071 0.7071 -0.7071 0.7071 905.4036 -622.6709)" y="225" x="1134.1"></rect>
		<path d="M1570.7,506.6l-91.4-91.4c-12.5-12.5-13.7-32.1-2.7-45.2l89.9-108.3c12.4-14.9,35.2-15.6,49.4-1.4L1725.7,370
			c14.1,14.1,13.5,37-1.4,49.4l-108.3,89.9C1602.8,520.2,1583.2,519,1570.7,506.6z" class="st3"></path>
		<g>
			<polygon points="542.6,1373.5 536.6,1367.4 1546.5,369.6 1552.5,375.6" class="st19"></polygon>
			<polygon points="567.3,1398.1 561.2,1392.1 1608,349.9 1614.1,355.9" class="st19"></polygon>
			
				<rect height="1477.1" width="8.5" class="st19" transform="matrix(0.7071 0.7071 -0.7071 0.7071 960.8653 -523.1704)" y="159.7" x="1107.7"></rect>
			<polygon points="617.4,1448.2 611.4,1442.2 1609.2,432.3 1615.2,438.4" class="st19"></polygon>
			
				<ellipse ry="14.9" rx="14.4" cy="353" cx="1611.2" class="st19" transform="matrix(0.7071 -0.7071 0.7071 0.7071 222.2772 1242.6907)"></ellipse>
			
				<ellipse ry="14.9" rx="14.4" cy="373.9" cx="1548.4" class="st19" transform="matrix(0.7071 -0.7071 0.7071 0.7071 189.0889 1204.3856)"></ellipse>
			
				<ellipse ry="14.9" rx="14.4" cy="376" cx="1634.2" class="st19" transform="matrix(0.7071 -0.7071 0.7071 0.7071 212.7493 1265.6932)"></ellipse>
			
				<ellipse ry="14.9" rx="14.4" cy="436.5" cx="1611" class="st19" transform="matrix(0.7071 -0.7071 0.7071 0.7071 163.1605 1266.9823)"></ellipse>
		</g>
	</g>
	<path d="M1293.8,1313.6h-126.9l0,0c-14.7,0-26.6,11.9-26.6,26.6v32.4v103.9c-5.8-2.5-12.2-3.9-18.9-3.7
		c-23,0.6-42.1,19.3-43.2,42.3c-1.2,25.5,19.1,46.5,44.3,46.5c24.5,0,44.4-19.9,44.4-44.4c0-0.5-0.1-1-0.1-1.5h0.1V1386
		c0-7.4,6-13.3,13.3-13.3h100.3c7.4,0,13.3,6,13.3,13.3v90.6c-5.8-2.5-12.2-3.9-18.9-3.7c-23,0.6-42.1,19.3-43.2,42.3
		c-1.2,25.5,19.1,46.5,44.3,46.5c24.5,0,44.4-19.9,44.4-44.4c0-0.5-0.1-1-0.1-1.5h0.1v-143.1v-32.4
		C1320.5,1325.5,1308.6,1313.6,1293.8,1313.6L1293.8,1313.6z" class="st12"></path>
	<path d="M1022.8,461.4v-45.9H958c-23.4,0-42.5,18.1-44.2,41h-0.2v3.4v1.5v24.6V510v54.2c-5.9-2.7-12.4-4.3-19.3-4.3
		c-26.5,0-47.8,22.5-45.8,49.4c1.7,22.7,20.2,40.9,42.9,42.3c25.3,1.6,46.5-17.4,48.6-41.8h0.2V510h82.5v-24.1h-82.5v-24.6H1022.8z" class="st20"></path>
	<g class="st5">
		<path d="M1549.3,1025.7c0,0,127.5,127.5,172.2,172.2s0,88.6,0,88.6s-47.1,53.7-100.8,0
			c-53.7-53.7-100.6-100.6-123.3-123.3c-22.7-22.7-69.3-34.7-103.7-0.3c-34.4,34.4-18.5,81.3,2.1,101.9
			c20.5,20.5,215.1,215.1,215.1,215.1s7,6.6,13.7-0.1c8.5-8.5,1.1-14.7,1.1-14.7s-203.9-203.9-215-215
			c-11.1-11.1-29.6-44.8-2.1-72.3c27.6-27.6,57.8-12.1,72,2.1c14.1,14.1,124.5,124.5,124.5,124.5s60.8,68.7,129.5,0
			c68.7-68.7,0-122.3,0-122.3l-170.4-170.4L1549.3,1025.7z" class="st2"></path>
		<g>
			<path d="M1672.9,1087l-47.3,47.3c-11.3,11.3-29.4,11.5-41,0.6l-281.5-265.1l105.2-105.2l265.1,281.5
				C1684.5,1057.6,1684.2,1075.8,1672.9,1087z" class="st1"></path>
			
				<ellipse ry="118.5" rx="118.5" cy="766.1" cx="1304.7" class="st3" transform="matrix(0.7071 -0.7071 0.7071 0.7071 -159.5606 1146.951)"></ellipse>
			<polygon points="1455.3,791.7 1330.4,916.6 1277.7,895.2 1433.9,739.1" class="st2"></polygon>
			<circle r="27.6" cy="896.5" cx="1435.2" class="st18"></circle>
			
				<ellipse ry="13.7" rx="13.7" cy="896.5" cx="1435.2" class="st19" transform="matrix(0.7071 -0.7071 0.7071 0.7071 -213.5983 1277.4094)"></ellipse>
		</g>
		
			<rect height="26.8" width="47.2" class="st2" transform="matrix(0.7071 -0.7071 0.7071 0.7071 -306.2136 1501.0027)" y="1106.7" x="1635.2"></rect>
	</g>
</g>
<g class="st4" id="下午茶">
	<path d="M1204.1,642.3v-360c0-25.2-20.4-45.6-45.6-45.6h-68.3c-25.2,0-45.6,20.4-45.6,45.6v360h0
		c0,78.8-114,113.3-114,234.8V1800h387.4V877.1C1318.1,774.2,1204.1,710.6,1204.1,642.3L1204.1,642.3z" class="st9"></path>
	<path d="M1044.6,604.5L1044.6,604.5l0-368c0-20.1,16.3-36.5,36.5-36.5h86.6c20.1,0,36.5,16.3,36.5,36.5l0,368H1044.6z" class="st13"></path>
	<path d="M1241.1,1712.8h-233.4c-11,0-20-9-20-20v-691.9c0-11,9-20,20-20h233.4c11,0,20,9,20,20v691.9
		C1261.1,1703.9,1252.1,1712.8,1241.1,1712.8z" class="st16"></path>
	<path d="M1001.6,1800H373.2c-27.6,0-48.8-24.3-45.2-51.6l61.1-458.7c3-22.6,22.3-39.6,45.2-39.6h506.2
		c22.8,0,42.2,16.9,45.2,39.6l61.1,458.7C1050.4,1775.7,1029.2,1800,1001.6,1800z" class="st11"></path>
	<path d="M521.7,1546.4c-34.3,0-62.1-30.7-62.1-68.4v-227.9h455.7v227.9c0,37.7-27.9,68.4-62.1,68.4H521.7z" class="st13"></path>
	<path d="M851.5,1523.6H523.3c-22.7,0-41-20.4-41-45.6v-227.9h410.2v227.9C892.5,1503.2,874.1,1523.6,851.5,1523.6z" class="st11"></path>
	<path d="M749.8,1568.1H625.1c-3.3,0-6-2.7-6-6v-70c0-3.3,2.7-6,6-6h124.7c3.3,0,6,2.7,6,6v70
		C755.8,1565.4,753.1,1568.1,749.8,1568.1z" class="st16"></path>
	<path d="M574.4,1249.3v-45.6c0-62.8,51.1-113.9,113.9-113.9s113.9,51.1,113.9,113.9v45.6h45.6v-45.6
		c0-88-71.6-159.5-159.5-159.5s-159.5,71.6-159.5,159.5v45.6H574.4z" class="st21"></path>
	<g class="st5">
		<path d="M1580.6,1800h-545.7c-19.2,0-36.8-9.8-45.3-25.2l-43.7-78.6c-8.4-15.2,3.8-33,22.7-33H1647
			c18.8,0,31.1,17.8,22.7,33l-43.7,78.6C1617.4,1790.2,1599.8,1800,1580.6,1800z" class="st2"></path>
		<path d="M1512.9,1663.3h-410.2v-103.9c0-5.5,4.5-10,10-10h390.2c5.5,0,10,4.5,10,10V1663.3z" class="st3"></path>
		<path d="M1444.6,1549.5h-273.4v-58.4c0-5.5,4.5-10,10-10h253.4c5.5,0,10,4.5,10,10V1549.5z" class="st3"></path>
		<g>
			<path d="M1143.3,1622.2c22.7,0,41.1,18.4,41.1,41.1h-82.2C1102.2,1640.6,1120.6,1622.2,1143.3,1622.2z" class="st19"></path>
			<path d="M1225.5,1622.2c22.7,0,41.1,18.4,41.1,41.1h-82.2C1184.4,1640.6,1202.8,1622.2,1225.5,1622.2z" class="st19"></path>
			<path d="M1307.8,1622.2c22.7,0,41.1,18.4,41.1,41.1h-82.2C1266.6,1640.6,1285.1,1622.2,1307.8,1622.2z" class="st19"></path>
			<path d="M1348.9,1663.3c0-22.7,18.4-41.1,41.1-41.1c22.7,0,41.1,18.4,41.1,41.1H1348.9z" class="st19"></path>
			<path d="M1431.1,1663.3c0-22.7,18.4-41.1,41.1-41.1c22.7,0,41.1,18.4,41.1,41.1H1431.1z" class="st19"></path>
		</g>
		<g>
			<path d="M1205.4,1515.3c18.9,0,34.2,15.3,34.2,34.2h-68.4C1171.2,1530.6,1186.5,1515.3,1205.4,1515.3z" class="st19"></path>
			<path d="M1273.7,1515.3c18.9,0,34.2,15.3,34.2,34.2h-68.4C1239.5,1530.6,1254.9,1515.3,1273.7,1515.3z" class="st19"></path>
			<path d="M1342.1,1515.3c18.9,0,34.2,15.3,34.2,34.2h-68.4C1307.9,1530.6,1323.2,1515.3,1342.1,1515.3z" class="st19"></path>
			<path d="M1376.3,1549.5c0-18.9,15.3-34.2,34.2-34.2c18.9,0,34.2,15.3,34.2,34.2H1376.3z" class="st19"></path>
		</g>
		<path d="M1423.3,1361.9c0.9-3.2-0.4-6.7-3.2-8.5c-14.7-9.4-45-1.3-72,20.3c-23.2,18.5-37.2,41.6-37,58.1
			c0.1,6.5,7.6,10.2,12.7,6.1l0.9-0.7c2.1-1.7,3.1-4.4,2.9-7.1c-0.9-9.3,11.8-27.1,31.5-42.7c21-16.8,42.5-25.4,50.3-20.5
			c1.5,1,3.4,1.2,5.2,1l2.1-0.2C1419.8,1367.3,1422.5,1365,1423.3,1361.9L1423.3,1361.9z" class="st2"></path>
		<circle r="40.4" cy="1440.7" cx="1318.5" class="st8"></circle>
	</g>
</g>
<g class="st4" id="沙滩">
	<path d="M1745.1,1627.9c0,166.8-595.4,172.3-764.6,172.3c-170.9,0-764.6,13.5-764.6-172.3
		c0-113.4,342.3-238.3,764.6-238.3S1745.1,1514.5,1745.1,1627.9z" class="st14"></path>
	<g class="st5">
		<path d="M1269.8,692.9c0,0-156.3,199-222.5,457.8c-35.3,138-68,337.6-68,337.6l127.6,14.6c0,0,10.4-204.6,41.9-350
			S1316,712.9,1316,712.9L1269.8,692.9z" class="st2"></path>
		<circle r="63.6" cy="696.3" cx="1346.1" class="st1"></circle>
		<circle r="79" cy="651.2" cx="1271.8" class="st7"></circle>
		<path d="M1353.4,633.1c-123.5-14.2-323.4-37.1-479.2-54.9c9.8-85.4,125-142.4,257.3-127.2
			C1263.8,466.1,1363.1,547.7,1353.4,633.1z" class="st2"></path>
		<path d="M1345.7,636c-77.3-97.4-202.4-254.8-300-377.7c67.3-53.5,189.1-12.3,271.9,92S1413.1,582.6,1345.7,636z" class="st1"></path>
		<path d="M1516,1036.3c-46.4-106.9-121.4-279.8-180-414.7c78.9-34.2,183.1,30.8,232.8,145.3
			C1618.6,881.5,1594.9,1002.1,1516,1036.3z" class="st2"></path>
		<path d="M1776.7,803.7c-112.6-44.5-294.9-116.4-437-172.5c31.6-80,155-106.2,275.6-58.6
			C1736,620.3,1808.2,723.7,1776.7,803.7z" class="st1"></path>
		<path d="M1781.9,439.5c-114,49.5-298.6,129.6-442.5,192.1c-34.2-78.9,37.1-185.8,159.2-238.8
			S1747.7,360.6,1781.9,439.5z" class="st7"></path>
	</g>
	<path d="M1529.4,1591.7c0,59.4-422.8,68.4-548.3,68.4c-123.5,0-548.3-9-548.3-68.4s245.5-148.8,548.3-148.8
		S1529.4,1532.3,1529.4,1591.7z" class="st15"></path>
	<path d="M900,1134.1c0,163.2-36.9,273.1-94.2,365.8c-41,66.3-92.4,95-148.2,95c-54.4,0-104.6-26.7-145-89.9
		c-59.1-92.4-97.4-204.7-97.4-370.9c0-279.8,108.5-506.7,242.4-506.7S900,854.3,900,1134.1z" class="st9"></path>
	<g class="st5">
		<defs>
			<path d="M900,1134.1c0,163.2-36.9,273.1-94.2,365.8c-41,66.3-92.4,95-148.2,95c-54.4,0-104.6-26.7-145-89.9
				c-59.1-92.4-97.4-204.7-97.4-370.9c0-279.8,108.5-506.7,242.4-506.7S900,854.3,900,1134.1z" id="SVGID_5_"></path>
		</defs>
		<clipPath id="SVGID_6_">
			<use style="overflow:visible;" xlink:href="#SVGID_5_"></use>
		</clipPath>
		<g class="st22">
			<polygon points="657.5,750.6 914.1,898.7 932.1,867.5 657.5,709 657.5,709 657.5,709 383,867.5 401,898.7" class="st7"></polygon>
			<polygon points="657.5,815.2 657.5,815.2 383,973.7 401,1004.9 657.5,856.8 914.1,1004.9 932.1,973.7 657.5,815.2" class="st7"></polygon>
			<polygon points="657.5,921.5 657.5,921.5 383,1080 401,1111.2 657.5,963 914.1,1111.2 932.1,1080 657.5,921.5" class="st7"></polygon>
		</g>
	</g>
	<g class="st5">
		<circle r="94.7" cy="372.4" cx="627.5" class="st3"></circle>
		<path d="M653,257.3l-14.3-2.3c-3.7-0.6-6.2-4.1-5.7-7.8l6.6-41.9c0.6-3.7,4.1-6.2,7.8-5.7l14.3,2.3
			c3.7,0.6,6.2,4.1,5.7,7.8l-6.6,41.9C660.2,255.3,656.7,257.9,653,257.3z" class="st3"></path>
		<path d="M564.1,273l-11.7,8.5c-3,2.2-7.3,1.5-9.5-1.5l-25-34.3c-2.2-3-1.5-7.3,1.5-9.5l11.7-8.5
			c3-2.2,7.3-1.5,9.5,1.5l25,34.3C567.8,266.5,567.1,270.8,564.1,273z" class="st3"></path>
		<path d="M512.3,346.9l-2.3,14.3c-0.6,3.7-4.1,6.2-7.8,5.7l-41.9-6.6c-3.7-0.6-6.2-4.1-5.7-7.8l2.3-14.3
			c0.6-3.7,4.1-6.2,7.8-5.7l41.9,6.6C510.4,339.7,512.9,343.2,512.3,346.9z" class="st3"></path>
		<path d="M528,435.8l8.5,11.7c2.2,3,1.5,7.3-1.5,9.5l-34.3,25c-3,2.2-7.3,1.5-9.5-1.5l-8.5-11.7
			c-2.2-3-1.5-7.3,1.5-9.5l34.3-25C521.5,432.1,525.8,432.8,528,435.8z" class="st3"></path>
		<path d="M602,487.6l14.3,2.3c3.7,0.6,6.2,4.1,5.7,7.8l-6.6,41.9c-0.6,3.7-4.1,6.2-7.8,5.7l-14.3-2.3
			c-3.7-0.6-6.2-4.1-5.7-7.8l6.6-41.9C594.8,489.5,598.3,487,602,487.6z" class="st3"></path>
		<path d="M690.9,471.9l11.7-8.5c3-2.2,7.3-1.5,9.5,1.5l25,34.3c2.2,3,1.5,7.3-1.5,9.5l-11.7,8.5
			c-3,2.2-7.3,1.5-9.5-1.5l-25-34.3C687.2,478.4,687.8,474.1,690.9,471.9z" class="st3"></path>
		<path d="M742.6,397.9l2.3-14.3c0.6-3.7,4.1-6.2,7.8-5.7l41.9,6.6c3.7,0.6,6.2,4.1,5.7,7.8l-2.3,14.3
			c-0.6,3.7-4.1,6.2-7.8,5.7l-41.9-6.6C744.6,405.1,742,401.6,742.6,397.9z" class="st3"></path>
		<path d="M726.9,309.1l-8.5-11.7c-2.2-3-1.5-7.3,1.5-9.5l34.3-25c3-2.2,7.3-1.5,9.5,1.5l8.5,11.7
			c2.2,3,1.5,7.3-1.5,9.5l-34.3,25C733.4,312.8,729.1,312.1,726.9,309.1z" class="st3"></path>
	</g>
	<g class="st5">
		<path d="M1150.4,924.3c-183.6,0-332.4,148.8-332.4,332.4s148.8,332.4,332.4,332.4c183.6,0,332.4-148.8,332.4-332.4
			S1334,924.3,1150.4,924.3z M1150.4,1442.2c-102.5,0-185.5-83.1-185.5-185.5c0-102.5,83.1-185.5,185.5-185.5
			c102.5,0,185.5,83.1,185.5,185.5C1336,1359.1,1252.9,1442.2,1150.4,1442.2z" class="st8"></path>
		<g>
			<defs>
				<ellipse ry="158.1" rx="130.3" cy="990.8" cx="1150.4" id="SVGID_7_"></ellipse>
			</defs>
			<clipPath id="SVGID_8_">
				<use style="overflow:visible;" xlink:href="#SVGID_7_"></use>
			</clipPath>
			<path d="M1150.4,924.3c-183.6,0-332.4,148.8-332.4,332.4s148.8,332.4,332.4,332.4c183.6,0,332.4-148.8,332.4-332.4
				S1334,924.3,1150.4,924.3z M1150.4,1442.2c-102.5,0-185.5-83.1-185.5-185.5c0-102.5,83.1-185.5,185.5-185.5
				c102.5,0,185.5,83.1,185.5,185.5C1336,1359.1,1252.9,1442.2,1150.4,1442.2z" class="st23"></path>
		</g>
		<g>
			<defs>
				<ellipse ry="158.1" rx="130.3" cy="1522.5" cx="1150.4" id="SVGID_9_"></ellipse>
			</defs>
			<clipPath id="SVGID_10_">
				<use style="overflow:visible;" xlink:href="#SVGID_9_"></use>
			</clipPath>
			<path d="M1150.4,1589.1c183.6,0,332.4-148.8,332.4-332.4S1334,924.3,1150.4,924.3S818,1073.1,818,1256.7
				S966.9,1589.1,1150.4,1589.1z M1150.4,1071.1c102.5,0,185.5,83.1,185.5,185.5c0,102.5-83.1,185.5-185.5,185.5
				c-102.5,0-185.5-83.1-185.5-185.5C964.9,1154.2,1048,1071.1,1150.4,1071.1z" class="st24"></path>
		</g>
		<g>
			<defs>
				<ellipse ry="130.3" rx="158.1" cy="1256.7" cx="884.6" id="SVGID_11_"></ellipse>
			</defs>
			<clipPath id="SVGID_12_">
				<use style="overflow:visible;" xlink:href="#SVGID_11_"></use>
			</clipPath>
			<path d="M818,1256.7c0,183.6,148.8,332.4,332.4,332.4s332.4-148.8,332.4-332.4S1334,924.3,1150.4,924.3
				S818,1073.1,818,1256.7z M1336,1256.7c0,102.5-83.1,185.5-185.5,185.5c-102.5,0-185.5-83.1-185.5-185.5
				c0-102.5,83.1-185.5,185.5-185.5C1252.9,1071.1,1336,1154.2,1336,1256.7z" class="st25"></path>
		</g>
		<g>
			<defs>
				<ellipse ry="130.3" rx="158.1" cy="1256.7" cx="1416.3" id="SVGID_13_"></ellipse>
			</defs>
			<clipPath id="SVGID_14_">
				<use style="overflow:visible;" xlink:href="#SVGID_13_"></use>
			</clipPath>
			<path d="M1482.8,1256.7c0-183.6-148.8-332.4-332.4-332.4S818,1073.1,818,1256.7s148.8,332.4,332.4,332.4
				S1482.8,1440.3,1482.8,1256.7z M964.9,1256.7c0-102.5,83.1-185.5,185.5-185.5c102.5,0,185.5,83.1,185.5,185.5
				c0,102.5-83.1,185.5-185.5,185.5C1048,1442.2,964.9,1359.1,964.9,1256.7z" class="st26"></path>
		</g>
	</g>
	<g class="st5">
		<path d="M994.9,1529.2c0,66.3-53.7,99.4-120,99.4s-120-33.1-120-99.4s70.3-140.6,120-140.6S994.9,1462.9,994.9,1529.2
			z" class="st6"></path>
		<path d="M874.9,1471c0,0-67.5-9.2-91.3-21.1c-17.1,24.1-28.7,52.3-28.7,79.3c0,66.3,53.7,99.4,120,99.4
			s120-33.1,120-99.4c0-26.9-11.6-55.2-28.7-79.3C943.9,1462.8,874.9,1471,874.9,1471z" class="st7"></path>
		<ellipse ry="11.3" rx="16.3" cy="1441.2" cx="905.6" class="st3"></ellipse>
		<path d="M1009.7,1335.8l-53.4-6.4c-2.2-0.3-4.4,0.5-5.3,2.3c0,0.1-0.1,0.1-0.1,0.2c0,0,0,0.1-0.1,0.1l-49,106.7
			c-0.9,1.9-0.3,4.4,1.6,5.7c2.4,1.6,5.6,0.8,6.7-1.6l46.9-102.3c0.6-1.3,2-2,3.5-1.9l48.8,5.9c2.8,0.3,5.2-1.8,4.9-4.5
			C1014,1337.8,1012,1336.1,1009.7,1335.8z" class="st2"></path>
	</g>
</g>
<g class="st4" id="度假">
	<g class="st5">
		<path d="M1634.6,1801.1H828.9c-37.1,0-67.2-30.1-67.2-67.2v-455.5c0-37.1,30.1-67.2,67.2-67.2h805.7
			c37.1,0,67.2,30.1,67.2,67.2v455.5C1701.8,1771.1,1671.7,1801.1,1634.6,1801.1z" class="st1"></path>
		<circle r="231.1" cy="1506.2" cx="1410.6" class="st2"></circle>
		<circle r="157.6" cy="1506.2" cx="1410.6" class="st19"></circle>
		<path d="M929.6,1697.2H761.8v-382h167.8c22.1,0,40,17.9,40,40v302C969.6,1679.3,951.7,1697.2,929.6,1697.2z" class="st2"></path>
		<path d="M1037,1211.2H901.9v-49.1c0-7.7,6.3-14,14-14H1023c7.7,0,14,6.3,14,14V1211.2z" class="st8"></path>
		<path d="M1527.9,1211.2h-405.3l26.5-102.1c2.3-8.8,10.2-15,19.4-15h313.6c9.1,0,17.1,6.2,19.4,15L1527.9,1211.2z" class="st8"></path>
		<path d="M1452.8,1190.1h-105.7c-8.9,0-16.1-7.2-16.1-16.1v-36.1c0-8.9,7.2-16.1,16.1-16.1h105.7
			c8.9,0,16.1,7.2,16.1,16.1v36.1C1468.9,1182.9,1461.7,1190.1,1452.8,1190.1z" class="st19"></path>
		<circle r="35.8" cy="1445.8" cx="1466.8" class="st2"></circle>
	</g>
	<g class="st5">
		
			<rect height="624.1" width="53.9" class="st2" transform="matrix(0.7071 0.7071 -0.7071 0.7071 816.9691 -343.5788)" y="502.3" x="796.3"></rect>
		<path d="M1328.8,914.1L729.3,314.5c-11.1-11.1-0.4-29.8,14.8-25.8l461.7,121.3c13.4,3.5,23.9,14,27.4,27.4
			l121.3,461.7C1358.5,914.5,1339.9,925.2,1328.8,914.1z" class="st1"></path>
		<path d="M1206,409.8L744.3,288.5c-15.2-4-25.9,14.7-14.8,25.8l148.2,148.2l342.1-45.9
			C1215.8,413.5,1211.1,411.2,1206,409.8z" class="st7"></path>
		<path d="M1233.5,437.3L1354.8,899c4,15.2-14.7,25.9-25.8,14.8l-148.2-148.2l45.9-342.1
			C1229.8,427.6,1232.1,432.2,1233.5,437.3z" class="st7"></path>
	</g>
	<path d="M974.3,777.8H234c-17.8,0-32.2,14.4-32.2,32.2v47.2c0,160,354.1,267.5,354.1,385.2v383.7
		c0,35.6-28.8,93.4-64.4,93.4H369.8c-28.4,0-51.5,23.1-51.5,51.5v10.8c0,10.7,8.6,19.3,19.3,19.3h265.5h2.1h265.5
		c10.7,0,19.3-8.6,19.3-19.3V1771c0-28.4-23.1-51.5-51.5-51.5H716.8c-35.6,0-64.4-57.8-64.4-93.4v-383.7
		c0-112,354.1-225.2,354.1-385.2V810C1006.5,792.3,992.1,777.8,974.3,777.8z" class="st14"></path>
	<path d="M606.1,1108.5c-25.1,0-49.5-8.8-68.8-24.8c-29-24-61.9-46.8-96.7-70.8c-45.1-31.2-91.7-63.4-124.8-95.7
		l-0.7-0.6c-12.5-12.3-16.3-30.9-9.6-47.2c6.7-16.4,22.5-27,40.2-27h515.4c18.2,0,34.5,10.9,41.5,27.8c6.9,16.8,3,35.9-9.9,48.6
		l-0.7,0.7c-33.8,33.3-81.1,66.2-126.8,98.1c-32.4,22.6-62.9,43.9-90.3,66.3C655.5,1099.7,631.1,1108.5,606.1,1108.5z" class="st15"></path>
</g>
<g class="st4" id="生日">
	<g class="st5">
		<circle r="316.5" cy="720.8" cx="750.5" class="st1"></circle>
		<g>
			<circle r="140" cy="505" cx="520.6" class="st1"></circle>
			<circle r="140" cy="505" cx="980.4" class="st1"></circle>
		</g>
		<path d="M1167,1115.6c0-128.2-112-232.1-250.2-232.1c-63.9,0-122.1,22.2-166.3,58.7
			c-44.2-36.5-102.5-58.7-166.3-58.7c-138.2,0-250.2,103.9-250.2,232.1c0,72.6,35.9,144.2,92.1,186.7l324.3,294.1l324.3-294.1
			C1131.1,1259.8,1167,1188.2,1167,1115.6z" class="st27"></path>
		<ellipse ry="143.7" rx="124.4" cy="1084.1" cx="374.4" class="st1"></ellipse>
		<ellipse ry="143.7" rx="124.4" cy="1084.1" cx="1120.5" class="st1"></ellipse>
		<path d="M459.6,597.1c-13.1-17.8-20.5-39.6-20.5-62.7c0-58.4,47.5-106,106-106c20.5,0,40.3,6,57.1,16.7
			C540.7,480.2,490.6,533.6,459.6,597.1z" class="st6"></path>
		<path d="M1039.2,597.1c13.1-17.8,20.5-39.6,20.5-62.7c0-58.4-47.5-106-106-106c-20.5,0-40.3,6-57.1,16.7
			C958,480.2,1008.1,533.6,1039.2,597.1z" class="st6"></path>
		<ellipse ry="28" rx="23.8" cy="1048.4" cx="427.1" class="st2"></ellipse>
		<ellipse ry="28" rx="23.8" cy="1127.6" cx="427.1" class="st2"></ellipse>
		<ellipse ry="28" rx="23.8" cy="1048.4" cx="1062.6" class="st2"></ellipse>
		<ellipse ry="28" rx="23.8" cy="1127.6" cx="1062.6" class="st2"></ellipse>
		<circle r="32.8" cy="651.6" cx="664.8" class="st2"></circle>
		<circle r="32.8" cy="651.6" cx="836.2" class="st2"></circle>
		<path d="M840.3,828.9c0-3.4-2.7-6.1-6.1-6.1c-3.4,0-6.1,2.7-6.1,6.1c0,0,0,0,0,0c0,17.3-18.4,31.3-41,31.3
			c-19.1,0-27.3-20.8-27.3-37.2c14.6-3.1,25.4-13.3,25.4-25.4c0-14.6-15.5-26.4-34.5-26.4c-19.1,0-34.5,11.8-34.5,26.4
			c0,12.1,10.7,22.3,25.4,25.4c0,18.7-12.8,37.2-27.3,37.2c-22.7,0-41-14-41-31.4c0,0,0,0,0,0c0-3.4-2.7-6.1-6.1-6.1
			c-3.4,0-6.1,2.7-6.1,6.1c0,0,0,0,0,0l0,0c0,24,23.9,43.6,53.3,43.6c24.3,0,36.5-22.9,36.5-31.8c0,9.2,15.1,31.3,36.5,31.8
			C816.4,873.2,840.3,853,840.3,828.9L840.3,828.9C840.3,828.9,840.3,828.9,840.3,828.9z" class="st2"></path>
		<ellipse ry="150.8" rx="142.1" cy="1457.4" cx="520.6" class="st1"></ellipse>
		<ellipse ry="150.8" rx="142.1" cy="1457.4" cx="958.1" class="st1"></ellipse>
		<ellipse ry="22.6" rx="63.8" cy="1551.1" cx="520.6" class="st2"></ellipse>
		<ellipse ry="22.6" rx="63.8" cy="1551.1" cx="958.1" class="st2"></ellipse>
	</g>
	<g class="st5">
		<rect height="218.2" width="709.1" class="st3" y="1372.1" x="983.9"></rect>
		<rect height="179.1" width="507.8" class="st3" y="1172.8" x="1084.5"></rect>
		<path d="M1312.9,1635H951.1c-13.4,0-24.2-9.5-24.2-21.2v-2.4c0-11.7,10.8-21.2,24.2-21.2h386h2.7h386
			c13.4,0,24.2,9.5,24.2,21.2v2.4c0,11.7-10.8,21.2-24.2,21.2H1364H1312.9z" class="st8"></path>
		<path d="M1710.2,1453.3C1710.2,1453.3,1710.2,1453.3,1710.2,1453.3v-60.8c0-31.5-27.7-57-62-57h-619.6
			c-34.2,0-62,25.5-62,57v46.7v30.1v1.2h0c0.7,26.4,24.2,47.7,53.1,47.7h0c28.9,0,52.4-21.3,53.1-47.7h0.1c0-0.4,0-0.8,0-1.2v-16.1
			c0-27,23.8-48.9,53.1-48.9h0c29.3,0,53.1,21.9,53.1,48.9l0,0v16.1c0,0.4,0,0.8,0,1.2h0.1c0.7,26.4,24.2,47.7,53.1,47.7h0
			c28.9,0,52.4-21.3,53.1-47.7h0.1c0-0.4,0-0.8,0-1.2v-16.1l0,0c0-27,23.8-48.9,53.1-48.9h0c29.3,0,53.1,21.9,53.1,48.9l0,0v16.1
			c0,0.4,0,0.8,0,1.2h0.1c0.7,26.4,24.2,47.7,53.1,47.7h0c28.9,0,52.4-21.3,53.1-47.7h0.1c0-0.4,0-0.8,0-1.2v-16.1l0,0
			c0-27,23.8-48.9,53.1-48.9h0c29.3,0,53.1,21.9,53.1,48.9l0,0v16.1c0,0.4,0,0.8,0,1.2h0.1c0.7,26.4,24.2,47.7,53.1,47.7h0
			c28.9,0,52.4-21.3,53.1-47.7h0v-1.2c0,0,0,0,0,0V1453.3z" class="st6"></path>
		<path d="M1624.7,1236.4C1624.7,1236.4,1624.7,1236.4,1624.7,1236.4v-45c0-23.3-21.4-42.3-47.7-42.3h-477
			c-26.3,0-47.7,18.9-47.7,42.3v34.6v22.3v0.9h0c0.5,19.6,18.6,35.4,40.9,35.4h0c22.3,0,40.3-15.8,40.9-35.4h0c0-0.3,0-0.6,0-0.9
			v-11.9c0-20,18.3-36.2,40.9-36.2h0c22.6,0,40.9,16.2,40.9,36.2l0,0v11.9c0,0.3,0,0.6,0,0.9h0c0.5,19.6,18.6,35.4,40.9,35.4l0,0
			c22.3,0,40.3-15.8,40.9-35.4h0c0-0.3,0-0.6,0-0.9v-11.9l0,0c0-20,18.3-36.2,40.9-36.2l0,0c22.6,0,40.9,16.2,40.9,36.2l0,0v11.9
			c0,0.3,0,0.6,0,0.9h0c0.5,19.6,18.6,35.4,40.9,35.4h0c22.3,0,40.3-15.8,40.9-35.4h0c0-0.3,0-0.6,0-0.9v-11.9l0,0
			c0-20,18.3-36.2,40.9-36.2h0c22.6,0,40.9,16.2,40.9,36.2l0,0v11.9c0,0.3,0,0.6,0,0.9h0c0.5,19.6,18.6,35.4,40.9,35.4h0
			c22.3,0,40.3-15.8,40.9-35.4h0v-0.9c0,0,0,0,0,0V1236.4z" class="st6"></path>
		<circle r="22.9" cy="1464" cx="1020.6" class="st19"></circle>
		<circle r="22.9" cy="1464" cx="1233.6" class="st19"></circle>
		<circle r="22.9" cy="1464" cx="1444.1" class="st19"></circle>
		<circle r="22.9" cy="1464" cx="1657.7" class="st19"></circle>
		<rect height="139" width="48.3" class="st8" y="1010.4" x="1314.3"></rect>
		<rect height="17.9" width="12.1" class="st2" y="992.5" x="1332.4"></rect>
		<path d="M1338.4,898.6L1338.4,898.6c15.4,0,37.3,42.8,37.3,63.4v-0.4c0,20.6-14.5,34-37.3,34h0
			c-23.1,0-37.3-13.4-37.3-34v0.4C1301.2,941.4,1322.9,898.6,1338.4,898.6z" class="st3"></path>
		<path d="M1338.4,935.5L1338.4,935.5c8.3,0,20.1,23.1,20.1,34.2v-0.2c0,11.1-7.8,18.4-20.1,18.4l0,0
			c-12.5,0-20.1-7.3-20.1-18.4v0.2C1318.3,958.6,1324.4,935.5,1338.4,935.5z" class="st6"></path>
	</g>
	<g class="st5">
		<path d="M1673.8,966.9l-335.4-130.9l52.6-192.7l195.8-51.8l133,330.1C1732.1,951.8,1704.6,978.9,1673.8,966.9z" class="st27"></path>
		<g>
			<defs>
				<path d="M1673.8,966.9l-335.4-130.9l52.6-192.7l195.8-51.8l133,330.1C1732.1,951.8,1704.6,978.9,1673.8,966.9z" id="SVGID_15_"></path>
			</defs>
			<clipPath id="SVGID_16_">
				<use style="overflow:visible;" xlink:href="#SVGID_15_"></use>
			</clipPath>
			<g class="st28">
				<polygon points="1641.1,625.4 1540,997 1600.2,1012.9 1701.4,641.2" class="st1"></polygon>
				<polygon points="1527,583.5 1425.8,955.2 1486,971 1587.2,599.4" class="st1"></polygon>
			</g>
		</g>
		
			<ellipse ry="82.6" rx="182.4" cy="696.7" cx="1445.7" class="st1" transform="matrix(0.7156 -0.6985 0.6985 0.7156 -75.5131 1207.8534)"></ellipse>
		<path d="M1415,666.5c-61.6,60.6-85.2,135.7-52.7,167.7c0.7,0.7,1.4,1.3,2.2,2c39.9-5.5,92.8-35,140.1-81.6
			s77.3-98.6,82.9-137.9c-0.6-0.7-1.3-1.4-2-2.1C1552.9,582.6,1476.6,605.8,1415,666.5z" class="st2"></path>
		<path d="M1379.9,624.1l-28.2,27.8c-4.7,4.6-12.3,4.6-17,0l-28.2-27.8c-4.7-4.6-4.7-12.1,0-16.8l28.2-27.8
			c4.7-4.6,12.3-4.6,17,0l28.2,27.8C1384.6,612,1384.6,619.5,1379.9,624.1z" class="st8"></path>
		<path d="M1262.6,539.1l-21.2,20.8c-3.1,3.1-8.2,3.1-11.4,0l-21.2-20.8c-3.1-3.1-3.1-8.1,0-11.2l21.2-20.8
			c3.1-3.1,8.2-3.1,11.4,0l21.2,20.8C1265.7,531,1265.7,536,1262.6,539.1z" class="st8"></path>
		<path d="M1456,466.4l-21.2,20.8c-3.1,3.1-8.2,3.1-11.4,0l-21.2-20.8c-3.1-3.1-3.1-8.1,0-11.2l21.2-20.8
			c3.1-3.1,8.2-3.1,11.4,0l21.2,20.8C1459.1,458.3,1459.1,463.3,1456,466.4z" class="st8"></path>
		<path d="M1222.7,759.5l-21.2,20.8c-3.1,3.1-8.2,3.1-11.4,0l-21.2-20.8c-3.1-3.1-3.1-8.1,0-11.2l21.2-20.8
			c3.1-3.1,8.2-3.1,11.4,0l21.2,20.8C1225.8,751.4,1225.8,756.4,1222.7,759.5z" class="st8"></path>
		<path d="M1481.2,668.6c5.5-4.3,9-10,9.4-15.4c0.9-13.9,0.2-41.9-16-68.4c-21.9-35.7-64.5,0-90.3-42
			c-17.2-28.1,25.5-63.8-1.4-107.8c-21.2-34.7-62.5-36.5-79-35.7c-4.3,0.2-8.9,2.1-12.5,5.1l0,0c-6.1,5.1-4.9,12.3,2.2,12.7
			c19.7,1,50.5,7.3,67.9,35.7c23.9,39.1-25.4,63.9,1.4,107.8c26.6,43.5,69.7,5.4,92.4,42.5c13.5,22.1,13.7,46.2,11.5,62.1
			C1465.9,671.7,1474.6,673.8,1481.2,668.6L1481.2,668.6z" class="st3"></path>
		<path d="M1416.2,735.4c-2.9,5.9-7.6,10.3-12.5,11.7c-12.8,3.7-41.6,13.7-67.6-0.6c-41.7-23.1-20.1-58.1-55.1-74.3
			c-28.5-13.2-57.5,36.9-104.3,21.3c-36.9-12.3-47-49.5-49.6-64.7c-0.7-4,0.2-8.5,2.2-12.4l0,0c4.5-7.8,15.1-4.3,16.8,2.1
			c4.9,17.7,11.6,45.2,42.8,51.8c41.7,8.9,54.9-36.1,101.6-20.7c43.6,14.4,26.7,62.7,61.2,74.9c23.4,8.2,38.6,4.4,53.1-0.7
			C1410.9,721.6,1417.7,727.9,1416.2,735.4L1416.2,735.4z" class="st3"></path>
	</g>
</g>
<g class="st4" id="学习">
	<path d="M774.2,1504.8l-105.7,61.1L317.2,958l-3.1-104.7c0.3-9.9,10.9-16.1,19.6-11.3l89.2,55L774.2,1504.8z" class="st12"></path>
	<path d="M371.2,1100.1h408.6c29.9,0,54.1,24.2,54.1,54.1v543.4c0,56.6-45.9,102.4-102.4,102.4H421.2
		c-57.5,0-104.1-46.6-104.1-104.1v-541.7C317.1,1124.3,341.3,1100.1,371.2,1100.1z" class="st9"></path>
	<g class="st5">
		<path d="M1411.7,1085.8L960.9,262.3c16.1-8.8,22-29,13.2-45.1s-29-22-45.1-13.2c-125.5,68.7-216.8,182.2-257,319.6
			c-40.2,137.4-24.5,282.2,44.3,407.7c68.7,125.5,182.2,216.8,319.6,257c137.4,40.2,282.1,24.5,407.7-44.3c0,0,0,0,0,0
			c16.1-8.8,22-29,13.2-45.1C1447.9,1082.9,1427.7,1077,1411.7,1085.8z" class="st3"></path>
		<circle r="469.4" cy="674.1" cx="1186.3" class="st1"></circle>
		<g>
			<defs>
				<circle r="469.4" cy="674.1" cx="1186.3" id="SVGID_17_"></circle>
			</defs>
			<clipPath id="SVGID_18_">
				<use style="overflow:visible;" xlink:href="#SVGID_17_"></use>
			</clipPath>
			<g class="st29">
				<g>
					<path d="M1425.9-231.4l-512.5,401c-61.9,74.5-73.4,143.3-50.9,172.4c58.9,76,97.7,20,140.5,69.1
						c30.4,35,23.3,170.5,122.6,144.1c78.1-20.8,64.2-62.7,62.9-126.7c-1.3-64,88.8-95,125.6-62.7c44.9,39.6,106.1,167.8,44.9,226.8
						c-44.6,43-67.3,108.5-25.2,176.4c52.3,84.2,150-7.3,217.8,61.3c168,169.9,343.2-111,343.2-111l-125.5-569.5L1425.9-231.4z" class="st0"></path>
					<path d="M1257.4,915c-97.5-11.8-163.1-37.2-186.6-108.6c-23.5-71.4-166.5-214.9-226.2-57.8
						c-59.7,157.1-142.5,46.9-142.5,46.9L821.2,1206l368.9,70c0,0,207.6-154.8,159.7-165.7c-48-10.9-90.7-40.7-73.9-76
						C1292.7,999.1,1327.6,923.5,1257.4,915z" class="st0"></path>
				</g>
			</g>
		</g>
		<path d="M996.4,1369.1l162.5-71.5c15.6-6.9,33.3-6.9,48.9,0l162.5,71.5c19.8,8.7,13.6,38.3-8.1,38.3h-357.8
			C982.8,1407.4,976.6,1377.8,996.4,1369.1z" class="st3"></path>
		<rect height="143.3" width="56" class="st3" y="1200.1" x="1155.6"></rect>
	</g>
	<path d="M1591.4,1588.4h-786c-13.3,0-24.1-10.8-24.1-24.1v-132.8c0-13.3,10.8-24.1,24.1-24.1h786
		c13.3,0,24.1,10.8,24.1,24.1v132.8C1615.6,1577.6,1604.8,1588.4,1591.4,1588.4z" class="st13"></path>
	<path d="M1579.8,1564.3h-235.7c-11,0-20-9-20-20v-92.8c0-11,9-20,20-20h235.7c5.5,0,10,4.5,10,10v112.8
		C1589.8,1559.9,1585.3,1564.3,1579.8,1564.3z" class="st16"></path>
	<path d="M1656.6,1800H740.3c-16.2,0-29.3-13.1-29.3-29.3v-153c0-16.2,13.1-29.3,29.3-29.3h916.3
		c16.2,0,29.3,13.1,29.3,29.3v153C1685.9,1786.9,1672.8,1800,1656.6,1800z" class="st12"></path>
	<path d="M1645.8,1771.8h-280.4c-11,0-20-9-20-20v-115.2c0-11,9-20,20-20h280.4c5.5,0,10,4.5,10,10v135.2
		C1655.8,1767.3,1651.3,1771.8,1645.8,1771.8z" class="st16"></path>
	<path d="M1093.3,1677.3H858c-3.9,0-7-3.1-7-7v-21.6c0-3.9,3.1-7,7-7h235.3c3.9,0,7,3.1,7,7v21.6
		C1100.2,1674.2,1097.1,1677.3,1093.3,1677.3z" class="st16"></path>
	<path d="M1093.3,1746.8H858c-3.9,0-7-3.1-7-7v-21.6c0-3.9,3.1-7,7-7h235.3c3.9,0,7,3.1,7,7v21.6
		C1100.2,1743.6,1097.1,1746.8,1093.3,1746.8z" class="st16"></path>
</g>
<g class="st4" id="圣诞">
	<path d="M951,1739.4H765c-11.6,0-21-9.4-21-21v-302.9c0-11.6,9.4-21,21-21h186c11.6,0,21,9.4,21,21v302.9
		C971.9,1730,962.5,1739.4,951,1739.4z" class="st13"></path>
	<path d="M1482,1428.6l-350.3-319.9h164.2c36.8,0,55.2-40.6,29.2-64.4l-283.4-258.8h134.8c36.3,0,54.4-40,28.8-63.5
		L900.9,444c-15.9-14.5-41.7-14.5-57.6,0l-304.5,278c-25.6,23.4-7.5,63.5,28.8,63.5h134.8l-283.4,258.8c-26,23.8-7.6,64.4,29.2,64.4
		h164.2l-350.3,319.9c-26.1,23.8-7.6,64.6,29.3,64.6h1161.1C1489.6,1493.2,1508.1,1452.5,1482,1428.6z" class="st9"></path>
	<path d="M1000.8,353.2l-85.3-5.9c-2.5-0.2-4.7-1.8-5.7-4.1l-31.6-78.5c-2.2-5.5-10-5.5-12.2,0l-31.6,78.5
		c-0.9,2.3-3.1,3.9-5.7,4.1l-85.3,5.9c-5.9,0.4-8.3,7.8-3.8,11.6l64,53.6c1.9,1.6,2.8,4.2,2.2,6.7l-21.7,86.4
		c-1.4,5.8,4.9,10.3,9.9,7.2l73-45.7c2.1-1.3,4.9-1.3,7,0l76.1,47.7c5,3.2,11.3-1.4,9.9-7.2l-22.1-88c-0.6-2.5,0.2-5,2.2-6.7
		l64.4-53.9C1009.1,361.1,1006.7,353.6,1000.8,353.2z" class="st14"></path>
	<path d="M1041.7,785.5c7.8,0,79.3-0.1,79.3-0.1c20.8,0,38.2,0.1,55.9,0.1c16.1,0,33.2-9.6,37.9-24.6
		c3.8-9.4,3.5-20.2-1.9-29.8c-2,0-61.9,5.5-149.3,5.5c-141.2,0-263.7-80.4-324.1-197.9l-39.4,36c33.5,59.9,102.3,129,170.9,166
		C943,779.8,1014.1,785.5,1041.7,785.5z" class="st30"></path>
	<path d="M714.5,1031.7c-16.8,0.9-29,16.5-25.8,33c46.8,242.9,327.5,428.5,582,428.5c127.1,0,98.3,0,175.3,0
		c0,0,33.1,4.7,45.7-25.1c9.7-25.2-11.1-40.7-11.1-40.7c-81,0-18.8,0.8-175.6,0.8c-231,0-530.5-174.2-556-398.5L714.5,1031.7z" class="st30"></path>
	<path d="M949.8,747.6c-26.7,174.8-172.9,293-356.2,304.9c-54,3.5-174.4-8.3-174.4-8.3c-7.7,6.7-20.6,25.7-5.9,46.6
		c11.6,16.5,25.4,17.8,45,17.8c65.2,0,59,0,118.9,0H610c199.8-7.8,364-156.9,395.1-350C1008.7,737.1,952.5,729.5,949.8,747.6z" class="st30"></path>
	<g class="st5">
		<path d="M829.3,735.1h-9.8c-2.6,0-4.6-2.1-4.6-4.6V706c0-2.6,2.1-4.6,4.6-4.6h9.8c2.6,0,4.6,2.1,4.6,4.6v24.5
			C833.9,733,831.8,735.1,829.3,735.1z" class="st2"></path>
		<circle r="47.7" cy="763" cx="824.4" class="st8"></circle>
	</g>
	<g class="st5">
		<path d="M1026.1,978.2h-9.8c-2.6,0-4.6-2.1-4.6-4.6v-24.5c0-2.6,2.1-4.6,4.6-4.6h9.8c2.6,0,4.6,2.1,4.6,4.6v24.5
			C1030.7,976.1,1028.6,978.2,1026.1,978.2z" class="st2"></path>
		<circle r="47.7" cy="1006.1" cx="1021.2" class="st8"></circle>
	</g>
	<g class="st5">
		<path d="M636.4,1257.2h-9.8c-2.6,0-4.6-2.1-4.6-4.6v-24.5c0-2.6,2.1-4.6,4.6-4.6h9.8c2.6,0,4.6,2.1,4.6,4.6v24.5
			C641.1,1255.1,639,1257.2,636.4,1257.2z" class="st2"></path>
		<circle r="47.7" cy="1285.1" cx="631.5" class="st8"></circle>
	</g>
	<path d="M1495.3,1417c3.5-0.5,7.1-3.9,9.6-9.3c6.4-14,18.6-44.2,25.6-84.2c9.4-53.9-19.1-47.5-8.1-111
		c7.3-42.3,35.8-48.8,47.3-115.1c9.1-52.3-2.3-84.6-7.5-96c-1.4-3-3.5-4.3-5.9-3.8l0,0c-4,0.8-6.9,9.4-5,15
		c5.4,15.5,11.7,44.9,4.2,87.8c-10.2,58.9-35.8,48.9-47.3,115.1c-11.4,65.7,18.2,57,8.5,113c-5.8,33.4-16.4,59-24.1,74.3
		C1489.4,1409,1491,1417.6,1495.3,1417L1495.3,1417z" class="st13"></path>
	<path d="M1490.9,1390.5c-3.2-0.7-6.4-4.4-8.5-10c-5.4-14.5-15.7-45.6-20.8-86.3c-6.9-54.8,18.9-46.7,10.8-111.2
		c-5.4-43.1-31.3-51.2-39.8-118.7c-6.7-53.2,4.7-85.1,9.8-96.2c1.3-2.9,3.4-4.2,5.6-3.5l0,0c3.7,1.1,6,9.9,4.1,15.4
		c-5.4,15.3-12.1,44.5-6.6,88.1c7.6,59.9,31.3,51.4,39.8,118.7c8.4,66.8-18.4,56.3-11.2,113.3c4.3,33.9,13.2,60.4,19.8,76.2
		C1496.6,1382.8,1494.8,1391.3,1490.9,1390.5L1490.9,1390.5z" class="st13"></path>
	<g class="st5">
		<path d="M1472.6,984.7l-55.5,4c-4.3,0.3-8-2.6-8.3-6.4l15.1-38.2c-0.1-1.9,1.5-3.6,3.6-3.8l27.8-2
			c2.1-0.2,4,1.3,4.1,3.2l20.4,35.6C1480.2,981,1476.9,984.4,1472.6,984.7z" class="st8"></path>
		<path d="M1620,682.3c7.8,108.3-48,253.4-178.2,262.7c-114,8.2-206.2-126.2-214-234.5s73.7-202.4,181.9-210.2
			C1518.1,492.5,1612.2,574,1620,682.3z" class="st8"></path>
	</g>
	<g class="st5">
		<path d="M1581.2,1015.7l-44.5-6.2c-3.4-0.5-5.9-3.4-5.5-6.4l18.4-27.6c0.2-1.5,1.8-2.6,3.5-2.4l22.3,3.1
			c1.7,0.2,2.9,1.7,2.7,3.2l10.1,31.6C1587.8,1014.1,1584.6,1016.2,1581.2,1015.7z" class="st3"></path>
		<path d="M1748.5,801.8c-12.1,86.8-80.6,191.9-184.9,177.4c-91.4-12.7-141.5-134.4-129.4-221.2s92.2-147.4,179-135.3
			C1700,634.8,1760.5,715,1748.5,801.8z" class="st3"></path>
	</g>
	<g class="st5">
		
			<rect height="123.6" width="183.1" class="st6" transform="matrix(0.949 -0.3153 0.3153 0.949 -377.3125 368.8683)" y="1289" x="860"></rect>
		<polygon points="951.6,1350.8 1019,1263.3 1057.9,1380.6" class="st3"></polygon>
		<polygon points="951.6,1350.8 845.2,1321 884.2,1438.3" class="st3"></polygon>
		<path d="M974.6,1334.6c-2.6-7.9-11.6-12-20.1-9.1c-3.9,1.3-7,3.9-9,7c-3.5-1.3-7.5-1.5-11.4-0.2
			c-8.5,2.8-13.2,11.5-10.6,19.3c1.5,4.5,5.1,8.1,9.5,9.6l25.9,11.4l13.9-24.7C975.3,1344.2,976.1,1339.1,974.6,1334.6z" class="st8"></path>
	</g>
	<g class="st5">
		
			<rect height="123.6" width="183.1" class="st6" transform="matrix(0.8343 0.5514 -0.5514 0.8343 702.4179 -229.1859)" y="992" x="640.9"></rect>
		<polygon points="732.4,1053.8 842.9,1052.7 774.7,1155.8" class="st3"></polygon>
		<polygon points="732.4,1053.8 690.1,951.8 622,1054.9" class="st3"></polygon>
		<path d="M759.3,1061.9c4.6-6.9,2.2-16.5-5.2-21.4c-3.4-2.3-7.4-3.2-11.1-2.8c-1.1-3.5-3.4-6.8-6.9-9.1
			c-7.5-4.9-17.2-3.3-21.8,3.6c-2.6,3.9-3.2,9.1-1.7,13.4l7,27.4l28-4.3C752.3,1068.4,756.7,1065.9,759.3,1061.9z" class="st8"></path>
	</g>
	<g class="st5">
		<path d="M1582.5,1418.2h-244.7c-19.5,0-35.5,16-35.5,35.5v244.7c0,19.5,16,35.5,35.5,35.5h244.7
			c19.5,0,35.5-16,35.5-35.5v-244.7C1618,1434.2,1602.1,1418.2,1582.5,1418.2z" class="st8"></path>
		<path d="M1647,1526.7h-373.6c-11,0-20-9-20-20v-68.5c0-11,9-20,20-20H1647c11,0,20,9,20,20v68.5
			C1667,1517.7,1658,1526.7,1647,1526.7z" class="st8"></path>
		<path d="M1623.2,1406.5c0,0,0-0.1-0.1-0.1l-24.7-42.8c-7.1-12.2-22.8-16.4-35-9.4l-103.2,59.6l-103.2-59.6
			c-12.2-7.1-28-2.8-35,9.4l-24.7,42.8c0,0,0,0.1-0.1,0.1c-3,5.2,1,11.7,7,11.7h148.2h15.5h148.2
			C1622.2,1418.2,1626.1,1411.7,1623.2,1406.5z" class="st3"></path>
		<path d="M1484.7,1526.7h-49c-2.2,0-4-1.8-4-4v-100.5c0-2.2,1.8-4,4-4h49c2.2,0,4,1.8,4,4v100.5
			C1488.7,1524.9,1486.9,1526.7,1484.7,1526.7z" class="st3"></path>
	</g>
</g>
</svg>
